<svg id="Layer_1" data-name="Layer 1" xmlns="http://www.w3.org/2000/svg" viewBox="0 0 136.93 54.99"><defs><style>.cls-1{font-size:12px;fill:#da1c5c;font-family:Times-Roman, Times;}.cls-2{fill:#ed1c24;}</style></defs><title>Untitled-1</title><text class="cls-1" transform="translate(21.25 21.42)"><tspan xml:space="preserve">   EHH Enterprises</tspan><tspan x="0" y="14.4">Craft Sake Importer</tspan></text><path class="cls-2" d="M143.11,149.91a13.67,13.67,0,0,1,3.83-8.82,31.61,31.61,0,0,1,7.63-6,73.74,73.74,0,0,1,18-7.2,131.55,131.55,0,0,1,19.07-3.68,169.87,169.87,0,0,1,19.4-1.28,150.07,150.07,0,0,1,38.66,4.23A73.85,73.85,0,0,1,268,134.24a32.18,32.18,0,0,1,7.91,6.15,14.55,14.55,0,0,1,4.13,9.52,14.8,14.8,0,0,1-4,9.65,31.88,31.88,0,0,1-7.86,6.37,74.12,74.12,0,0,1-18.32,7.43,127.13,127.13,0,0,1-19.3,3.61c-3.24.38-6.51.6-9.77.78s-6.52.19-9.78.17a147.45,147.45,0,0,1-38.65-5.32,75.55,75.55,0,0,1-18-7.53,31.82,31.82,0,0,1-7.57-6.21A13.77,13.77,0,0,1,143.11,149.91Zm.39,0a13.25,13.25,0,0,0,3.76,8.54,31.24,31.24,0,0,0,7.55,5.86,71.34,71.34,0,0,0,17.94,6.93,130.16,130.16,0,0,0,19,3.29,167.78,167.78,0,0,0,19.28.86,156,156,0,0,0,38.06-4.91,73.12,73.12,0,0,0,17.64-7,36.9,36.9,0,0,0,3.87-2.61,23.22,23.22,0,0,0,3.39-3.09,12.25,12.25,0,0,0,3.47-7.84,12.46,12.46,0,0,0-3.32-8,30.58,30.58,0,0,0-7.21-5.92,72.36,72.36,0,0,0-17.64-7.38A147.67,147.67,0,0,0,211,123.39a143.84,143.84,0,0,0-38.47,4.52,72.53,72.53,0,0,0-17.95,7.26,31,31,0,0,0-7.5,6.07A13.33,13.33,0,0,0,143.5,149.91Z" transform="translate(-143.11 -122.93)"/></svg>